<svg width="161" height="48" viewBox="0 0 161 48" fill="none" xmlns="http://www.w3.org/2000/svg">
<path d="M33.1466 9.62016C32.4162 8.92442 32.0527 8.06242 32.0527 7.03236C32.0527 6.00411 32.4179 5.1403 33.1466 4.44456C33.877 3.74882 34.8216 3.40186 35.9857 3.40186C37.1481 3.40186 38.0945 3.73617 38.8249 4.403C39.5553 5.07163 39.9188 5.90472 39.9188 6.90767C39.9188 7.99194 39.5536 8.89008 38.8249 9.60028C38.0945 10.3105 37.1481 10.6647 35.9857 10.6647C34.8216 10.6647 33.877 10.3159 33.1466 9.62016Z" fill="#ff5a5a"/>
<path d="M83.7316 0.959979C71.1863 0.781074 60.9394 11.4612 60.9166 24.3712C60.8902 37.4729 71.0353 47.965 83.7228 47.9578C96.2154 47.9487 106.501 37.4819 106.457 24.6586C106.411 11.6364 96.9177 1.14792 83.7316 0.959979ZM67.0812 30.4287C64.9356 26.538 66.9039 19.1071 70.9352 15.1314C74.9525 11.1666 79.9671 9.78054 85.6243 9.48236V4.2887C89.4292 7.52164 92.8179 10.404 96.4489 13.4869C92.8828 16.5337 89.4643 19.4522 85.6331 22.7249V17.5313C76.8207 17.909 69.8607 20.7678 67.0812 30.4287ZM84.8324 39.8131C83.8246 39.9179 82.8203 40.0787 81.6509 40.2377V45.3067C77.8268 42.0738 74.41 39.186 70.7772 36.1103C74.3432 33.0707 77.7636 30.1576 81.5754 26.9084V31.9629C85.907 32.037 89.7645 31.1479 93.2884 29.0209C96.8597 26.8669 98.835 23.3863 100.189 19.1125C101.632 21.5991 101.228 23.8417 100.728 26.0193C98.9579 33.7719 92.9022 38.9854 84.8324 39.8131Z" fill="#ff5a5a"/>
<path d="M39.148 13.7947H32.8218V36.2463H39.148V13.7947Z" fill="#2e4057"/>
<path d="M59.0975 35.161C58.4759 35.6345 57.7122 35.9887 56.8062 36.2254C55.9002 36.4621 54.9468 36.5796 53.9477 36.5796C51.3526 36.5796 49.3457 35.8983 47.927 34.5339C46.5083 33.1714 45.799 31.1673 45.799 28.5253V18.7596H42.4331V13.752H45.799V8.82764H52.1252V13.752H57.5594V18.7596H52.1252V28.4421C52.1252 29.3891 52.3622 30.1191 52.8345 30.6323C53.3068 31.1474 53.9758 31.404 54.8414 31.404C55.8405 31.404 56.692 31.1257 57.3961 30.5691L59.0975 35.161Z" fill="#2e4057"/>
<path d="M119.592 27.4394L116.551 30.5278V36.2455H110.225V5.28052H116.551V22.8078L125.796 13.7939H133.337L124.254 23.3084L134.148 36.2455H126.484L119.592 27.4394Z" fill="#2e4057"/>
<path d="M146.354 27.4394L143.313 30.5278V36.2455H136.987V5.28052H143.313V22.8078L152.558 13.7939H160.099L151.016 23.3084L160.91 36.2455H153.246L146.354 27.4394Z" fill="#2e4057"/>
<path d="M27.8915 23.7041C26.9714 22.468 25.702 21.5843 24.0796 21.0548C25.2683 20.4151 26.1953 19.5386 26.8573 18.4255C27.5192 17.3123 27.8511 16.0473 27.8511 14.6287C27.8511 12.2903 26.924 10.4416 25.0734 9.07723C23.5757 7.97669 21.5547 7.31889 19.0071 7.10927V4.94434H12.4789V7.03337H9.76622V4.94434H3.23812V7.03337H0.909912V12.124H3.23812V31.1548H0.909912V36.2455H3.23812V38.3327H9.76622V36.2455H12.4789V38.3327H19.0071V36.2238C22.178 36.0991 24.6327 35.4178 26.3709 34.1799C28.3023 32.8029 29.2698 30.835 29.2698 28.2743C29.2698 26.4671 28.8097 24.9437 27.8915 23.7041ZM16.2943 12.124C17.9167 12.124 19.1458 12.4096 19.985 12.9788C20.8226 13.5498 21.2404 14.4064 21.2404 15.5467C21.2404 16.687 20.8226 17.549 19.985 18.1327C19.1458 18.7182 17.9167 19.0092 16.2943 19.0092H9.76622V12.124H16.2943ZM21.3423 30.2784C20.4644 30.8621 19.1598 31.1548 17.4303 31.1548H9.76622V23.9336H17.4303C20.9174 23.9336 22.6609 25.1443 22.6609 27.5659C22.6609 28.7893 22.2202 29.6929 21.3423 30.2784Z" fill="#2e4057"/>
</svg>
